<svg width="713" height="552" viewBox="0 0 713 552" fill="none" xmlns="http://www.w3.org/2000/svg">
<path d="M287.21 151.66C287.21 159.81 292.34 164.21 301.45 169.1L382.59 215.65C382.59 215.65 407.33 230.55 419.37 224.65C432.08 218.41 443.58 196.53 443.58 151.33V150.04C443.58 104.84 432.08 82.96 419.37 76.72C407.33 70.81 382.59 85.73 382.59 85.73L301.45 132.25C292.34 137.15 287.21 141.55 287.21 149.72V151.66Z" fill="#1F8649"/>
<path d="M278.62 119.51C284.32 121.87 288.88 119.55 294.95 114.61L351.03 71.42C351.03 71.42 368.63 58.47 367.99 48.34C367.34 37.64 355.38 23.24 323.79 10.11L322.9 9.74C291.3 -3.38 285.6 -1.18 277.55 5.89C269.93 12.6 269.06 33.69 269.06 33.69V103.91C269.83 111.71 271.54 116.57 277.26 118.94L278.61 119.52L278.62 119.51Z" fill="#1F8649"/>
<path d="M278.62 181.85C284.32 179.47 288.88 181.78 294.95 186.75L351.03 229.93C351.03 229.93 368.63 242.89 367.99 253.02C367.34 263.7 355.38 278.11 323.79 291.24L322.9 291.62C291.3 304.74 285.6 302.52 277.55 295.46C269.93 288.76 269.06 267.66 269.06 267.66V197.44C269.83 189.64 271.54 184.77 277.26 182.4L278.61 181.84L278.62 181.85Z" fill="#1F8649"/>
<path d="M5.64008 412.46C10.2501 409.66 15.6301 407.6 21.7501 406.26C27.8901 404.94 34.2901 404.26 40.9701 404.26C47.2801 404.26 52.3501 405.12 56.1701 406.81C60.0001 408.52 62.9201 410.74 64.9201 413.48C66.9201 416.21 68.2501 419.2 68.9301 422.49C69.6001 425.77 69.9301 429.04 69.9301 432.32C69.9301 439.61 69.7501 446.72 69.3901 453.63C69.0201 460.55 68.8401 467.11 68.8401 473.3C68.8401 477.8 69.0201 482.05 69.3901 486.06C69.7501 490.07 70.4201 493.76 71.4001 497.16H60.6501L56.83 484.41H55.9201C54.8201 486.12 53.4501 487.79 51.8101 489.43C50.1701 491.06 48.2001 492.52 45.8901 493.8C43.5801 495.08 40.9101 496.13 37.8801 496.97C34.8401 497.82 31.3901 498.26 27.5001 498.26C23.6101 498.26 20.0101 497.64 16.6701 496.44C13.3301 495.22 10.4501 493.49 8.02005 491.24C5.59005 489 3.68006 486.3 2.28006 483.14C0.88006 479.97 0.180054 476.4 0.180054 472.4C0.180054 467.06 1.28005 462.59 3.46005 459.01C5.64005 455.43 8.70008 452.58 12.6401 450.45C16.5901 448.34 21.3301 446.81 26.8501 445.9C32.3801 444.98 38.4801 444.53 45.1701 444.53H50.1701C51.8101 444.53 53.4801 444.66 55.1901 444.91C55.5501 441.26 55.7301 437.99 55.7301 435.08C55.7301 428.38 54.3901 423.72 51.7201 421.05C49.0501 418.37 44.1901 417.04 37.1501 417.04C35.0901 417.04 32.8701 417.2 30.5101 417.51C28.1401 417.83 25.7101 418.26 23.2301 418.82C20.7301 419.39 18.3701 420.07 16.1201 420.88C13.8701 421.7 11.8901 422.6 10.2101 423.6L5.65005 412.49L5.64008 412.46ZM31.5001 485.49C34.9001 485.49 37.93 485.03 40.61 484.12C43.27 483.21 45.5801 482.05 47.5301 480.66C49.4701 479.28 51.08 477.72 52.36 476.02C53.63 474.33 54.5701 472.68 55.1901 471.11V455.98C53.4801 455.87 51.75 455.78 49.9901 455.71C48.2301 455.66 46.5 455.62 44.8 455.62C41.0401 455.62 37.3601 455.82 33.7901 456.25C30.2101 456.68 27.0501 457.47 24.3101 458.62C21.5901 459.77 19.4001 461.35 17.7601 463.35C16.1201 465.35 15.3 467.88 15.3 470.91C15.3 475.16 16.82 478.66 19.86 481.38C22.89 484.11 26.7801 485.48 31.5201 485.48" fill="#222222"/>
<path d="M113.64 474.37C113.64 478.62 114.37 481.66 115.83 483.48C117.29 485.3 119.35 486.2 122.02 486.2C123.6 486.2 125.29 486.08 127.11 485.84C128.93 485.6 131 485.05 133.31 484.2L134.95 495.68C133.01 496.65 130.3 497.43 126.85 498.04C123.39 498.65 120.38 498.96 117.83 498.96C112.37 498.96 107.87 497.4 104.35 494.3C100.84 491.2 99.0801 485.96 99.0801 478.56V369.29H113.65V474.37H113.64Z" fill="#222222"/>
<path d="M222.18 455.8H213.8V496.78H199.23V369.3H213.8V446.88L221.27 444.33L249.49 405.72H266.44L238.57 442.32L231.1 448.33L240.21 455.61L270.62 496.78H252.59L222.18 455.8Z" fill="#222222"/>
<path d="M344.93 496.78V444.88C344.93 440.15 344.66 435.98 344.11 432.4C343.57 428.81 342.56 425.84 341.1 423.48C339.64 421.1 337.66 419.31 335.18 418.09C332.7 416.89 329.46 416.28 325.45 416.28C319.74 416.28 314.57 418.14 309.96 421.83C305.35 425.54 302.38 430.32 301.04 436.13V496.78H286.47V369.3H301.04V415.92H301.77C304.93 412.15 308.72 409.14 313.15 406.89C317.58 404.65 323.08 403.52 329.63 403.52C334.73 403.52 339.16 404.1 342.93 405.25C346.69 406.41 349.82 408.44 352.31 411.35C354.8 414.26 356.61 418.19 357.77 423.1C358.92 428.02 359.51 434.24 359.51 441.76V496.76H344.94L344.93 496.78Z" fill="#222222"/>
<path d="M380.99 451.25C380.99 435.83 384.42 424.02 391.27 415.83C398.14 407.63 408 403.53 420.86 403.53C427.66 403.53 433.58 404.66 438.62 406.91C443.66 409.15 447.82 412.37 451.09 416.55C454.36 420.75 456.8 425.78 458.37 431.67C459.95 437.54 460.75 444.08 460.75 451.25C460.75 466.67 457.32 478.48 450.46 486.67C443.59 494.86 433.73 498.97 420.86 498.97C414.06 498.97 408.15 497.84 403.1 495.59C398.07 493.35 393.92 490.13 390.63 485.95C387.35 481.75 384.92 476.72 383.34 470.83C381.77 464.94 380.98 458.41 380.98 451.25M396.1 451.25C396.1 455.87 396.56 460.3 397.47 464.54C398.38 468.8 399.8 472.5 401.75 475.65C403.69 478.81 406.25 481.35 409.41 483.3C412.57 485.24 416.38 486.21 420.88 486.21C437.4 486.33 445.66 474.68 445.66 451.24C445.66 446.51 445.2 442.02 444.28 437.76C443.38 433.52 441.94 429.8 440.01 426.65C438.07 423.49 435.52 420.97 432.36 419.08C429.2 417.21 425.38 416.26 420.88 416.26C404.37 416.14 396.11 427.8 396.11 451.23" fill="#222222"/>
<path d="M478.6 451.25C478.6 435.83 482.03 424.02 488.88 415.83C495.75 407.63 505.61 403.53 518.48 403.53C525.28 403.53 531.2 404.66 536.24 406.91C541.28 409.15 545.43 412.37 548.71 416.55C551.99 420.75 554.42 425.78 556 431.67C557.58 437.54 558.37 444.08 558.37 451.25C558.37 466.67 554.94 478.48 548.08 486.67C541.23 494.86 531.36 498.97 518.49 498.97C511.69 498.97 505.78 497.84 500.74 495.59C495.7 493.35 491.55 490.13 488.27 485.95C484.99 481.75 482.56 476.72 480.98 470.83C479.4 464.94 478.61 458.41 478.61 451.25M493.72 451.25C493.72 455.87 494.17 460.3 495.08 464.54C495.99 468.8 497.41 472.5 499.36 475.65C501.31 478.81 503.86 481.35 507.01 483.3C510.17 485.24 513.99 486.21 518.48 486.21C535 486.33 543.25 474.68 543.25 451.24C543.25 446.51 542.8 442.02 541.88 437.76C540.97 433.52 539.54 429.8 537.61 426.65C535.67 423.49 533.12 420.97 529.96 419.08C526.8 417.21 522.98 416.26 518.48 416.26C501.97 416.14 493.72 427.8 493.72 451.23" fill="#222222"/>
<path d="M624.3 419.74C620.65 418.52 617.19 417.92 613.92 417.92C608.7 417.92 604.56 419.35 601.54 422.2C598.5 425.05 596.62 428.67 595.89 433.05V496.79H581.32V405.73H591.52L594.25 416.84H594.98C597.29 412.71 600.05 409.52 603.27 407.28C606.48 405.03 610.58 403.92 615.57 403.92C619.08 403.92 623.04 404.52 627.41 405.74L624.32 419.76L624.3 419.74Z" fill="#222222"/>
<path d="M670.09 464.72L675.21 482.2H676.12L680.15 464.54L697.88 405.71H712.44L685.49 487.48C683.42 493.43 681.4 499.2 679.4 504.79C677.39 510.37 675.17 515.35 672.75 519.72C670.32 524.1 667.58 527.59 664.55 530.19C661.51 532.8 657.99 534.11 653.98 534.11C649.61 534.11 646.02 533.5 643.24 532.29L645.79 519.73C647.36 520.34 648.88 520.64 650.34 520.64C653.74 520.64 657.02 518.86 660.18 515.27C663.34 511.69 665.95 505.54 668.01 496.79L631.39 405.73H648.15L670.08 464.74L670.09 464.72Z" fill="#222222"/>
<path d="M218.8 549.87C217.93 550.54 216.83 551 215.5 551.26C214.17 551.52 212.75 551.65 211.25 551.65C209.43 551.65 207.72 551.34 206.13 550.72C204.54 550.1 203.15 549.15 201.96 547.88C200.77 546.61 199.83 544.98 199.14 543C198.45 541.02 198.1 538.67 198.1 535.95C198.1 533.23 198.48 530.71 199.25 528.72C200.02 526.74 201.03 525.12 202.29 523.86C203.55 522.6 204.96 521.68 206.52 521.1C208.08 520.52 209.67 520.23 211.29 520.23C213.03 520.23 214.44 520.32 215.54 520.51C216.64 520.7 217.58 520.95 218.36 521.27L217.49 524.48C216.1 523.79 214.12 523.44 211.54 523.44C210.35 523.44 209.18 523.66 208.02 524.09C206.86 524.52 205.83 525.23 204.92 526.22C204.01 527.2 203.28 528.49 202.73 530.08C202.18 531.67 201.91 533.62 201.91 535.94C201.91 538.02 202.17 539.85 202.69 541.41C203.21 542.97 203.93 544.27 204.84 545.32C205.75 546.36 206.82 547.14 208.05 547.66C209.28 548.18 210.62 548.44 212.06 548.44C213.36 548.44 214.5 548.31 215.47 548.05C216.44 547.79 217.25 547.46 217.92 547.05L218.79 549.87H218.8Z" fill="#5C5C5C"/>
<path d="M223.05 535.94C223.05 530.88 224.12 526.99 226.26 524.29C228.4 521.59 231.45 520.23 235.42 520.23C237.56 520.23 239.41 520.61 240.98 521.36C242.54 522.11 243.84 523.18 244.86 524.55C245.89 525.93 246.65 527.57 247.14 529.5C247.63 531.43 247.88 533.57 247.88 535.95C247.88 541.01 246.8 544.9 244.65 547.6C242.49 550.31 239.42 551.66 235.43 551.66C233.32 551.66 231.49 551.28 229.94 550.53C228.39 549.78 227.1 548.72 226.08 547.34C225.05 545.97 224.29 544.32 223.8 542.39C223.31 540.47 223.06 538.32 223.06 535.95L223.05 535.94ZM226.87 535.94C226.87 537.62 227.04 539.21 227.37 540.71C227.7 542.21 228.22 543.54 228.91 544.68C229.6 545.82 230.49 546.73 231.58 547.41C232.66 548.09 233.94 548.43 235.42 548.43C238.11 548.43 240.22 547.41 241.76 545.37C243.29 543.33 244.06 540.18 244.06 535.93C244.06 534.28 243.89 532.7 243.56 531.18C243.23 529.66 242.71 528.33 242 527.19C241.29 526.05 240.39 525.14 239.31 524.46C238.22 523.78 236.93 523.44 235.42 523.44C232.76 523.44 230.67 524.46 229.15 526.5C227.63 528.54 226.87 531.69 226.87 535.94Z" fill="#5C5C5C"/>
<path d="M272.74 520.75H276.21V541.02C276.21 542.84 275.97 544.42 275.49 545.75C275.01 547.08 274.33 548.17 273.45 549.03C272.57 549.89 271.5 550.51 270.26 550.92C269.02 551.32 267.64 551.53 266.14 551.53C262.55 551.53 259.85 550.72 258.02 549.1C256.2 547.48 255.29 545.02 255.29 541.72V520.76H258.89V540.03C258.89 541.56 259.04 542.86 259.35 543.91C259.66 544.96 260.11 545.82 260.72 546.47C261.33 547.12 262.09 547.59 263 547.88C263.91 548.17 264.97 548.31 266.19 548.31C268.53 548.31 270.21 547.67 271.22 546.38C272.23 545.09 272.74 542.97 272.74 540.02V520.75Z" fill="#5C5C5C"/>
<path d="M284.9 521.05C286 520.85 287.26 520.69 288.7 520.57C290.13 520.46 291.44 520.4 292.63 520.4C293.96 520.4 295.23 520.55 296.43 520.83C297.63 521.12 298.69 521.6 299.6 522.26C300.51 522.93 301.24 523.79 301.79 524.86C302.34 525.93 302.62 527.23 302.62 528.77C302.62 531.14 301.97 533.07 300.67 534.54C299.37 536.02 297.72 537 295.72 537.49L297.8 539.1L305.35 551.12H301.14L292.76 538.01L288.51 537.36V551.12H284.91V521.04L284.9 521.05ZM292.71 523.53H291.54C291.13 523.53 290.74 523.54 290.37 523.57C290 523.6 289.64 523.63 289.31 523.66C288.98 523.69 288.71 523.73 288.51 523.79V534.99H291.89C293.89 534.99 295.54 534.5 296.84 533.51C298.14 532.52 298.79 530.99 298.79 528.91C298.79 527.35 298.25 526.06 297.18 525.05C296.11 524.04 294.62 523.53 292.71 523.53Z" fill="#5C5C5C"/>
<path d="M328.99 523.96H319.53V551.13H315.93V523.96H306.47V520.75H329V523.96H328.99Z" fill="#5C5C5C"/>
<path d="M340.93 539.06L330.9 520.75H335.11L342.23 534.03L342.98 536.68H343.02L343.82 533.95L350.65 520.76H354.47L344.53 539.03V551.14H340.93V539.07V539.06Z" fill="#5C5C5C"/>
<path d="M371.23 542.71H360.09L357.07 551.13H353.47L364.97 520.27H366.62L378.16 551.13H374.34L371.23 542.71ZM361.26 539.58H370.16L366.79 530.34L365.71 525.74H365.67L364.59 530.43L361.26 539.59V539.58Z" fill="#5C5C5C"/>
<path d="M383.5 521.05C384.6 520.85 385.86 520.69 387.3 520.57C388.73 520.46 390.04 520.4 391.23 520.4C392.56 520.4 393.83 520.55 395.03 520.83C396.23 521.12 397.29 521.6 398.2 522.26C399.11 522.93 399.84 523.79 400.39 524.86C400.94 525.93 401.22 527.23 401.22 528.77C401.22 531.14 400.57 533.07 399.27 534.54C397.97 536.02 396.32 537 394.32 537.49L396.4 539.1L403.95 551.12H399.74L391.36 538.01L387.11 537.36V551.12H383.51V521.04L383.5 521.05ZM391.31 523.53H390.14C389.73 523.53 389.34 523.54 388.97 523.57C388.6 523.6 388.24 523.63 387.91 523.66C387.58 523.69 387.31 523.73 387.11 523.79V534.99H390.49C392.49 534.99 394.14 534.5 395.44 533.51C396.74 532.53 397.39 530.99 397.39 528.91C397.39 527.35 396.85 526.06 395.78 525.05C394.71 524.04 393.22 523.53 391.31 523.53Z" fill="#5C5C5C"/>
<path d="M410.63 520.75C411.18 520.66 411.79 520.6 412.47 520.55C413.15 520.51 413.86 520.48 414.6 520.46C415.34 520.44 416.06 520.43 416.77 520.42C417.48 520.41 418.14 520.4 418.74 520.4C421.17 520.4 423.28 520.78 425.06 521.53C426.84 522.28 428.31 523.33 429.47 524.68C430.63 526.03 431.49 527.64 432.05 529.52C432.61 531.4 432.9 533.47 432.9 535.73C432.9 537.78 432.63 539.76 432.1 541.65C431.56 543.55 430.72 545.22 429.56 546.68C428.4 548.14 426.9 549.31 425.04 550.19C423.19 551.07 420.95 551.51 418.31 551.51C417.85 551.51 417.25 551.51 416.51 551.49C415.77 551.47 415.01 551.45 414.23 551.4C413.45 551.36 412.72 551.32 412.06 551.29C411.39 551.26 410.92 551.22 410.63 551.16V520.74V520.75ZM418.83 523.61H417.59C417.14 523.61 416.7 523.62 416.27 523.65C415.84 523.68 415.44 523.71 415.08 523.74C414.72 523.77 414.44 523.8 414.23 523.83V548.14C414.37 548.17 414.65 548.19 415.05 548.2C415.46 548.22 415.88 548.23 416.31 548.24C416.75 548.26 417.16 548.27 417.57 548.28C417.97 548.3 418.25 548.3 418.39 548.3C420.42 548.3 422.12 547.95 423.49 547.26C424.86 546.57 425.96 545.63 426.79 544.46C427.62 543.29 428.2 541.94 428.55 540.42C428.9 538.9 429.07 537.33 429.07 535.71C429.07 534.29 428.91 532.87 428.59 531.43C428.27 530 427.72 528.7 426.94 527.55C426.16 526.39 425.11 525.45 423.79 524.71C422.47 523.97 420.82 523.6 418.82 523.6L418.83 523.61Z" fill="#5C5C5C"/>
<path d="M467.91 537.2H453.33V551.13H449.73V520.75H453.33V533.99H467.91V520.75H471.51V551.13H467.91V537.2Z" fill="#5C5C5C"/>
<path d="M478.94 535.94C478.94 530.88 480.01 526.99 482.15 524.29C484.29 521.59 487.34 520.23 491.31 520.23C493.45 520.23 495.3 520.61 496.87 521.36C498.43 522.11 499.73 523.18 500.75 524.55C501.78 525.93 502.54 527.57 503.03 529.5C503.52 531.43 503.77 533.57 503.77 535.95C503.77 541.01 502.69 544.9 500.54 547.6C498.38 550.31 495.31 551.66 491.32 551.66C489.21 551.66 487.38 551.28 485.83 550.53C484.28 549.78 482.99 548.72 481.97 547.34C480.94 545.97 480.18 544.32 479.69 542.39C479.2 540.47 478.95 538.32 478.95 535.95L478.94 535.94ZM482.76 535.94C482.76 537.62 482.93 539.21 483.26 540.71C483.59 542.21 484.11 543.54 484.8 544.68C485.49 545.82 486.38 546.73 487.47 547.41C488.55 548.09 489.83 548.43 491.31 548.43C494 548.43 496.11 547.41 497.65 545.37C499.18 543.33 499.95 540.18 499.95 535.93C499.95 534.28 499.78 532.7 499.45 531.18C499.12 529.66 498.6 528.33 497.89 527.19C497.18 526.05 496.28 525.14 495.2 524.46C494.11 523.78 492.82 523.44 491.31 523.44C488.65 523.44 486.56 524.46 485.04 526.5C483.52 528.54 482.76 531.69 482.76 535.94Z" fill="#5C5C5C"/>
<path d="M528.72 523.96H519.26V551.13H515.66V523.96H506.2V520.75H528.73V523.96H528.72Z" fill="#5C5C5C"/>
<path d="M534.49 520.75H551.02V523.96H538.09V533.9H549.94V537.11H538.09V547.92H551.24V551.13H534.49V520.75Z" fill="#5C5C5C"/>
<path d="M577.03 551.13H559.06V520.75H562.66V547.92H577.03V551.13Z" fill="#5C5C5C"/>
</svg>
