<svg viewBox="0 0 207 150" fill="none" xmlns="http://www.w3.org/2000/svg">
<path d="M6.2954 140.799L4.23729 133.293H2.78451V140.799H0V122.518H4.35836C7.0218 122.518 8.71671 124.213 8.71671 126.876V128.935C8.71671 130.629 7.99032 131.961 6.77967 132.688L9.07991 140.799H6.2954ZM2.90557 130.629H4.35836C5.32688 130.629 6.05327 130.024 6.05327 128.935V126.755C6.05327 125.787 5.44795 125.06 4.35836 125.06H2.90557V130.629Z" fill="white"/>
<path d="M11.7437 136.562V126.513C11.7437 123.85 13.4386 122.155 16.2231 122.155C18.8865 122.155 20.7025 123.85 20.7025 126.513V136.562C20.7025 139.225 19.0076 140.92 16.2231 140.92C13.6807 141.162 11.7437 139.346 11.7437 136.562ZM17.918 136.562V126.513C17.918 125.302 17.1916 124.818 16.2231 124.818C15.2546 124.818 14.5282 125.545 14.5282 126.513V136.562C14.5282 137.772 15.2546 138.256 16.2231 138.256C17.1916 138.256 17.918 137.772 17.918 136.562Z" fill="white"/>
<path d="M23.8501 136.562V126.513C23.8501 123.85 25.545 122.155 28.3295 122.155C30.993 122.155 32.8089 123.85 32.8089 126.513V136.562C32.8089 139.225 31.114 140.92 28.3295 140.92C25.545 141.162 23.8501 139.346 23.8501 136.562ZM29.9034 136.562V126.513C29.9034 125.302 29.177 124.818 28.2085 124.818C27.2399 124.818 26.5135 125.545 26.5135 126.513V136.562C26.5135 137.772 27.2399 138.256 28.2085 138.256C29.177 138.378 29.9034 137.772 29.9034 136.562Z" fill="white"/>
<path d="M48.6684 122.518V140.799H45.8839V128.329L43.2205 140.799H41.2835L38.8621 128.329V140.799H36.0776V122.518H39.9517L42.373 134.14L44.6733 122.518H48.6684Z" fill="white"/>
<path d="M66.9489 137.046H65.4961V140.799H62.7116V137.046H57.3848V134.625L62.3484 122.518H65.3751V134.382H66.8279V137.046H66.9489ZM62.5906 134.382V127.119L59.8061 134.382H62.5906Z" fill="white"/>
<path d="M80.7504 136.804H77.7238L77.1185 140.92H74.334L77.3606 122.639H81.1136L84.1403 140.92H81.3558L80.7504 136.804ZM80.5083 134.14L79.2977 126.392L78.087 134.14H80.5083Z" fill="white"/>
<path d="M87.0464 122.518H89.8309V138.257H94.7946V140.92H87.0464V122.518Z" fill="white"/>
<path d="M97.5786 122.518H100.363V138.257H105.327V140.92H97.5786V122.518Z" fill="white"/>
<path d="M18.6441 0H0V112.591H18.6441V0Z" fill="white"/>
<path d="M94.0678 71.4286L58.1114 0H37.5303V112.591H55.9322V37.5303L93.7047 112.591H112.591V0H94.0678V71.4286Z" fill="white"/>
<path d="M173.971 51.816L206.296 0H184.141L149.879 54.8427V0H131.598V112.591L161.865 69.0073L184.988 112.591H206.296L173.971 51.816Z" fill="white"/>
<path d="M131.235 140.678C131.235 145.884 126.998 150 121.913 150C116.707 150 112.591 145.763 112.591 140.678C112.591 136.441 114.528 134.867 121.065 126.392C126.513 119.37 131.719 112.47 131.719 112.47L131.235 140.678Z" fill="white"/>
</svg>
